Coordinates
version=1
nRows=8
nColumns=46
inDegrees=yes

Units are S.I. units (second, meters, Newtons, ...)
Angles are in degrees.

endheader
time	pelvis_tilt	pelvis_list	pelvis_rotation	pelvis_tx	pelvis_ty	pelvis_tz	bb_angle	bb_tx	bb_ty	bb_tz	hip_flexion_r	hip_adduction_r	hip_rotation_r	knee_angle_r	knee_angle_r_beta	ankle_angle_r	subtalar_angle_r	mtp_angle_r	crank_angle_r	hip_flexion_l	hip_adduction_l	hip_rotation_l	knee_angle_l	knee_angle_l_beta	ankle_angle_l	subtalar_angle_l	mtp_angle_l	crank_angle_l	lumbar_extension	lumbar_bending	lumbar_rotation	arm_flex_r	arm_add_r	arm_rot_r	elbow_flex_r	pro_sup_r	wrist_flex_r	wrist_dev_r	arm_flex_l	arm_add_l	arm_rot_l	elbow_flex_l	pro_sup_l	wrist_flex_l	wrist_dev_l
      2.50000000	    -20.47865527	     -0.70072153	      6.57425210	      0.27647606	      1.11923646	     -0.28002899	      0.00000000	      0.50000000	      0.00000000	      0.25000000	     58.27026011	    -10.37454435	      0.03417869	    101.39542702	      1.76968405	     -8.64756436	     -6.32034176	      0.00000000	      0.00000000	     48.80670560	     -2.27761676	     -0.76126095	     49.17923973	      0.85833966	      7.82990003	     -4.06512187	      0.00000000	      0.00000000	    -54.30609392	     -5.80150194	      0.87848329	     45.84241837	    -24.78001011	      9.07762647	     67.73029240	     48.08970494	      0.00000000	      0.00000000	     53.21903888	     -9.05651168	     23.61653487	     77.49701213	     49.64802025	      0.00000000	      0.00000000
      2.50500000	    -20.47352991	     -1.27457534	      5.99720234	      0.27781746	      1.11924631	     -0.28078827	      0.00000000	      0.50000000	      0.00000000	      0.25000000	     59.00538481	     -9.81093174	     -0.12641669	    102.38258825	      1.78691326	     -8.38689249	     -6.27225697	      0.00000000	      0.00000000	     47.87423557	     -3.11135524	     -0.83949836	     47.90217199	      0.83605062	      7.09211778	     -3.69760471	      0.00000000	      0.00000000	    -54.05786974	     -5.49432542	      1.51825615	     45.95919679	    -24.69464814	      9.31063768	     67.65819365	     48.09869042	      0.00000000	      0.00000000	     52.94689775	     -9.47023125	     23.73012936	     77.34369843	     49.63608718	      0.00000000	      0.00000000
      2.51000000	    -20.40965812	     -1.76202065	      5.08741502	      0.27913084	      1.11964407	     -0.28095631	      0.00000000	      0.50000000	      0.00000000	      0.25000000	     59.73850943	     -8.95318801	     -0.03323624	    103.31910151	      1.80325850	     -8.12520246	     -6.16881590	      0.00000000	      0.00000000	     46.80424468	     -4.20189273	     -1.38008879	     46.62868932	      0.81382415	      6.31515755	     -3.29792403	      0.00000000	      0.00000000	    -53.87699748	     -5.51291158	      2.24666829	     46.32769034	    -24.63542923	     10.08493871	     67.25061299	     48.11476837	      0.00000000	      0.00000000	     52.87308635	    -10.24151081	     24.37894245	     77.03359721	     49.66071707	      0.00000000	      0.00000000
      2.51500000	    -20.52974990	     -2.27432579	      4.58037018	      0.28012131	      1.12001165	     -0.28230745	      0.00000000	      0.50000000	      0.00000000	      0.25000000	     60.58802937	     -8.56010683	     -0.19518221	    104.20496364	      1.81871971	     -7.82826576	     -6.17494209	      0.00000000	      0.00000000	     45.88167133	     -4.78744981	     -1.26860697	     45.18417540	      0.78861263	      5.68147503	     -2.94956978	      0.00000000	      0.00000000	    -53.59145191	     -5.08154132	      2.84787636	     46.54089432	    -24.61939683	     10.30671004	     67.16232262	     48.12011600	      0.00000000	      0.00000000	     52.73779126	    -10.56661518	     24.50771577	     76.88952409	     49.65209326	      0.00000000	      0.00000000
      2.52000000	    -20.63511478	     -2.78954836	      3.91753412	      0.28109687	      1.12082994	     -0.28340440	      0.00000000	      0.50000000	      0.00000000	      0.25000000	     61.41800596	     -7.98067324	     -0.25654803	    104.96228400	      1.83193745	     -7.58609374	     -6.05596001	      0.00000000	      0.00000000	     44.86839579	     -5.51015841	     -1.32737797	     43.64219197	      0.76169994	      4.79638635	     -2.64118009	      0.00000000	      0.00000000	    -53.35423355	     -4.80923396	      3.50600085	     46.79516942	    -24.57796050	     10.62496880	     67.01930781	     48.13024957	      0.00000000	      0.00000000	     52.57079481	    -10.89139815	     24.71027719	     76.64976382	     49.64113783	      0.00000000	      0.00000000
      2.52500000	    -20.74874071	     -3.25648619	      3.13770589	      0.28203752	      1.12197609	     -0.28443724	      0.00000000	      0.50000000	      0.00000000	      0.25000000	     62.24745684	     -7.31332022	     -0.22068491	    105.64173034	      1.84379602	     -7.28216439	     -5.90844418	      0.00000000	      0.00000000	     43.78098924	     -6.24266156	     -1.47846536	     42.01396943	      0.73328210	      3.82339609	     -2.44025197	      0.00000000	      0.00000000	    -53.15522976	     -4.62828380	      4.23806985	     47.13839251	    -24.58794674	     11.05698879	     66.75751858	     48.13266803	      0.00000000	      0.00000000	     52.52248761	    -11.23413093	     25.00224799	     76.30692015	     49.62250730	      0.00000000	      0.00000000
      2.53000000	    -20.69445307	     -3.58265629	      2.26928880	      0.28299536	      1.12367014	     -0.28543467	      0.00000000	      0.50000000	      0.00000000	      0.25000000	     62.89918347	     -6.65943807	     -0.03081234	    106.26959545	      1.85475434	     -6.85771302	     -5.77307049	      0.00000000	      0.00000000	     42.40346424	     -6.90998253	     -1.82146049	     40.27559032	      0.70294166	      2.72633577	     -2.40674986	      0.00000000	      0.00000000	    -53.01391076	     -4.66280822	      4.96076067	     48.29552542	    -25.17892201	     13.48162505	     64.82079685	     48.10699612	      0.00000000	      0.00000000	     53.34897939	    -11.81179593	     26.78950385	     74.56825685	     49.56929865	      0.00000000	      0.00000000
      2.53500000	    -20.86320286	     -4.10760557	      1.46446290	      0.28378459	      1.12532856	     -0.28655705	      0.00000000	      0.50000000	      0.00000000	      0.25000000	     63.71969569	     -5.94735080	     -0.08361350	    106.76835934	      1.86345941	     -6.56209192	     -5.55397224	      0.00000000	      0.00000000	     41.29994212	     -7.65261581	     -1.89068960	     38.53495390	      0.67256182	      1.63090974	     -2.22881988	      0.00000000	      0.00000000	    -52.83866407	     -4.43704026	      5.78381396	     48.69555707	    -25.19182413	     13.84321666	     64.56568825	     48.11691113	      0.00000000	      0.00000000	     53.31039092	    -11.92654353	     26.87176156	     74.24015633	     49.54457308	      0.00000000	      0.00000000
